<?xml version="1.0" encoding="utf-8"?>
<!-- Generator: Adobe Illustrator 27.5.0, SVG Export Plug-In . SVG Version: 6.00 Build 0)  -->
<svg version="1.1" xmlns="http://www.w3.org/2000/svg" xmlns:xlink="http://www.w3.org/1999/xlink" x="0px" y="0px"
	 viewBox="0 0 500 500" style="enable-background:new 0 0 500 500;" xml:space="preserve">
<g id="BACKGROUND">
	<g>
		<g>
			<g>
				<rect y="-1" style="fill:#FFFFFF;" width="500" height="500"/>
			</g>
		</g>
	</g>
</g>
<g id="OBJECTS">
	<g>
		<g>
			<path style="opacity:0.38;fill:#E2E7FF;" d="M234.824,62.98c100.057,5.379,104.361,112.968,93.602,154.927
				c-10.759,41.959,71.008,51.642,80.691,120.499c9.683,68.857-53.794,97.906-98.981,98.981
				c-45.187,1.076-80.691-25.821-88.222-59.174c-7.531-33.352-29.049-49.491-66.705-55.946
				c-37.656-6.455-105.437-57.022-93.602-122.651c0,0,2.771-69.832,68.32-116.195C174.038,52.222,234.824,62.98,234.824,62.98z"/>
			<g>
				<g>
					<g>
						<path style="fill:#61A27D;" d="M170.101,227.854c0,0-2.726-34.76,7.497-57.934c4.089-5.452,6.816-3.408,6.816-3.408
							s1.363,14.313-2.045,27.944c-3.408,13.632-5.452,40.213-5.452,40.213L170.101,227.854z"/>
						<path style="fill:#578B71;" d="M168.056,225.128c0,0-0.682-16.358-17.721-30.671c-17.039-14.313-20.447-14.313-20.447-14.313
							s13.631-0.682,23.173,5.453c9.542,6.134,12.95,23.173,13.632,25.9c0.682,2.726,4.771,13.632,4.771,13.632H168.056z"/>
						<path style="fill:#578B71;" d="M179.11,227.634c0,0,3.194-16.057,22.234-27.575c19.041-11.517,22.408-10.992,22.408-10.992
							s-13.364-2.774-23.737,1.817c-10.373,4.591-16.365,20.902-17.459,23.49c-1.093,2.589-6.814,12.734-6.814,12.734
							L179.11,227.634z"/>
						<path style="fill:#7CC97D;" d="M171.464,225.128c0,0-17.721-58.615-33.397-72.247c0.681-2.045,19.084,4.089,24.536,19.084
							c5.453,14.994,6.816,37.486,8.861,43.621c2.045,6.134,4.771,11.587,4.771,11.587"/>
						<path style="fill:#7CC97D;" d="M170.101,227.854c0,0,6.816-32.034,24.537-42.939c1.363,4.089-18.402,37.486-16.358,52.481
							C180.324,252.39,170.101,227.854,170.101,227.854z"/>
					</g>
					<path style="fill:#A9A7E7;" d="M160.37,263.959h26.211c1.613-10.932,2.968-20.762,3.219-24.518
						c0.516-7.745-2.094-14.308-3.391-17.039h-25.867c-1.297,2.731-3.907,9.294-3.391,17.039
						C157.401,243.197,158.756,253.027,160.37,263.959z"/>
				</g>
				<g>
					<rect x="350.975" y="198.684" style="fill:#24ADB2;" width="48.071" height="65.037"/>
					<rect x="346.026" y="198.684" style="fill:#26C6DA;" width="48.071" height="65.037"/>
				</g>
				<g>
					<rect x="334.008" y="192.086" style="fill:#E1543C;" width="48.071" height="71.635"/>
					<rect x="321.991" y="192.086" style="fill:#FF634D;" width="55.14" height="71.635"/>
					<rect x="367.705" y="192.086" style="fill:#EB594D;" width="9.426" height="71.635"/>
				</g>
				<path style="fill:#202F7C;" d="M101.903,209.995c0,0-7.54,3.77-10.839,14.61c-3.299,10.839,14.61,40.059,14.61,38.645
					c0-1.414,17.909-9.426,17.909-9.426l-8.954-32.99L101.903,209.995z"/>
				<g>
					<polyline style="fill:#4F57A0;" points="290.249,267.201 280.292,240.887 255.4,240.887 265.357,267.201 					"/>
					<g>
						<polyline style="fill:#E2E7FF;" points="199.927,246.102 341.455,246.102 343.93,232.827 202.402,232.827 						"/>
						<path style="fill:#243FA7;" d="M214.928,165.646l-12.525,67.181H343.93l12.235-65.626c0.487-2.609-1.516-5.019-4.17-5.019
							H219.097C217.055,162.182,215.302,163.638,214.928,165.646z"/>
					</g>
				</g>
				<polygon style="fill:#FFFFFF;" points="284.642,257.712 322.109,229.789 285.349,227.668 250.71,254.531 				"/>
				<path style="fill:#FF8D68;" d="M274.156,248.64l9.426-5.184c0,0,9.102-3.77,9.367-3.77c0.265,0,1.06,0.884,0.088,2.739
					c-0.972,1.856-3.535,2.298-3.535,2.298l-1.679,4.683l8.719-1.237l2.003-0.471c0,0-1.414,3.535-2.003,4.359
					c-0.589,0.825-3.888,2.946-3.888,2.946s-6.245,5.184-8.483,5.773c-2.239,0.589-10.015,0.942-10.015,0.942l-4.948-0.118
					l-4.595,0.943c0,0-2.356-4.359-2.003-10.486L274.156,248.64z"/>
				<g>
					<g>
						<polygon style="fill:#E2E7FF;" points="330.003,270.319 357.337,448.463 363.935,448.463 346.026,269.376 						"/>
						<polygon style="fill:#E2E7FF;" points="385.614,270.319 412.948,448.463 419.546,448.463 401.637,269.376 						"/>
					</g>
					<g>
						<polygon style="fill:#C2D3EB;" points="225.378,270.319 198.044,448.463 191.446,448.463 209.355,269.376 						"/>
						<polygon style="fill:#C2D3EB;" points="169.767,270.319 142.433,448.463 135.835,448.463 153.744,269.376 						"/>
					</g>
					<rect x="159.399" y="268.434" style="fill:#A9A7E7;" width="246.008" height="8.483"/>
				</g>
				<path style="fill:#FFC757;" d="M410.12,272.204H166.94c-2.603,0-4.713-2.11-4.713-4.713l0,0c0-2.603,2.11-4.713,4.713-4.713
					H410.12c2.603,0,4.713,2.11,4.713,4.713l0,0C414.833,270.094,412.723,272.204,410.12,272.204z"/>
				<g>
					<path style="fill:#201360;" d="M175.085,430.555c0,0,1.546-3.785,8.009-3.112c6.463,0.673,7.263,1.871,8.16,5.042
						c0.897,3.171,3.286,6.517,4.803,7.184c1.516,0.668,7.125,4.103,11.602,4.626c4.477,0.523,5.103,3.213,4.176,4.495
						c-0.926,1.282-17.655,3.089-21.38,2.776c0,0-12.594,0.368-15.603-0.474C171.844,450.251,174.899,431.801,175.085,430.555z"/>
					<path style="fill:#FF8D68;" d="M176.799,403.417l-1.94,29.541c0,0,4.605,1.483,8.11,4.051c5.179,3.795,9.42-0.8,9.42-0.8
						l1.168-18.587L176.799,403.417z"/>
					<path style="fill:#202F7C;" d="M214.303,351.379l-19.087,82.003c0,0-9.897,1.414-21.915-4.241c0,0,10.604-77.054,11.311-82.003
						C185.319,342.189,212.889,347.138,214.303,351.379z"/>
					<g>
						<path style="fill:#FF8D68;" d="M136.932,139.224c0,0,7.836,1.46,12.986,13c5.15,11.54,3.911,36.873,1.198,40.024
							c-2.713,3.151-11.627,2.608-24.152-0.624c-13.234-3.414-18.504-16.587-21.408-25.313
							C99.993,149.6,113.619,131.118,136.932,139.224z"/>
						<path style="fill:#FF8D68;" d="M115.178,206.766l4.507-21.589c0,0,11.601-4.236,19.519,3.159l2.694,3.287l0.917,13.802
							C142.815,205.425,130.655,208.708,115.178,206.766z"/>
						<path style="fill:#201360;" d="M114.926,339.532c0,0,25.255,7.389,55.21,6.37c29.955-1.02,33.919-9.513,34.853-17.611
							c0.934-8.098-22.367-13.024-32.503-15.685c-10.136-2.661-44.791-12.627-54.163-2.519
							C108.952,320.195,106.772,332.624,114.926,339.532z"/>
						<path style="fill:#201360;" d="M245.071,430.555c0,0,1.546-3.785,8.009-3.112c6.463,0.673,7.263,1.871,8.16,5.042
							c0.897,3.171,3.286,6.517,4.803,7.184c1.516,0.668,7.125,4.103,11.602,4.626c4.477,0.523,5.103,3.213,4.176,4.495
							c-0.927,1.282-17.655,3.089-21.38,2.776c0,0-12.594,0.368-15.603-0.474C241.829,450.251,244.884,431.801,245.071,430.555z"/>
					</g>
					<path style="fill:#FF8D68;" d="M237.632,405.576l7.069,28.748c0,0,5.655-1.414,8.954,1.414
						c3.299,2.828,9.426,0.943,9.426,0.943l-5.184-22.622L237.632,405.576z"/>
					<path style="fill:#202F7C;" d="M179.193,309.435c1.414,0,49.484,16.023,58.91,23.093c9.426,7.54,24.507,91.546,25.449,93.431
						c0.943,1.885-13.667,7.069-23.093,5.655c-0.471-1.885-22.622-72.695-22.622-77.408c0,0-37.702-1.885-53.726-4.713
						c-16.023-2.828-26.863-3.299-33.461-20.736c-6.598-17.437,32.047-18.851,32.047-18.851L179.193,309.435z"/>
					<path style="fill:#E2E7FF;" d="M261.431,247.462c0,0,9.19-0.236,9.897,0.707c0.707,0.943,4.006,9.426,0.943,12.96
						c-2.592,1.885-2.592,1.885-2.592,1.885h-8.012L261.431,247.462z"/>
					<path style="fill:#E2E7FF;" d="M113.567,203.633l2.474-6.362c0,0,14.845-4.595,27.57,1.06c3.181,3.181,4.949,8.13,4.949,8.13
						L113.567,203.633z"/>
					<path style="fill:#202F7C;" d="M110.386,204.34c0,0,1.885-3.299,5.184-3.77c3.299-0.471,18.38-2.356,28.277,0.471
						c3.77,1.414,5.655,3.299,5.655,3.299s14.138,4.713,18.851,7.54c4.713,2.828,6.127,24.507,7.069,31.576
						c0.942,7.069-1.885,14.61-1.885,14.61s11.311,46.185,11.311,52.783s-3.77,14.138-16.966,18.851
						c-13.196,4.713-49.013,2.828-61.267-4.713c-3.77-7.54-9.426-97.084-10.368-105.567
						C95.305,210.938,110.386,204.34,110.386,204.34z"/>
					<path style="fill:#202F7C;" d="M160.577,209.995c0,0,3.535-2.121,12.018,3.535c8.483,5.655,31.811,26.863,34.639,28.277
						c2.828,1.414,57.261,4.242,57.261,4.242s7.776,9.897-0.707,17.673c0,0-52.548,2.121-62.445,1.414
						c-9.897-0.707-42.887-19.794-42.887-19.794S145.025,225.547,160.577,209.995z"/>
				</g>
				<g>
					<path style="fill:none;stroke:#1B2048;stroke-width:0.8263;stroke-miterlimit:10;" d="M149.248,241.188
						c0,0,44.07,23.137,49.212,23.871c5.142,0.734,24.606,0,24.606,0"/>
					<path style="fill:none;stroke:#1B2048;stroke-width:0.8263;stroke-miterlimit:10;" d="M208.743,247.064
						c0,0,1.469,8.08-3.673,12.854"/>
					<path style="fill:none;stroke:#1B2048;stroke-width:0.8263;stroke-miterlimit:10;" d="M212.048,244.86
						c0,0,4.407,6.978,2.203,12.119"/>
					<path style="fill:none;stroke:#1B2048;stroke-width:0.8263;stroke-miterlimit:10;" d="M148.88,232.006
						c0,0-3.673-12.854,9.181-21.301"/>
					<path style="fill:none;stroke:#1B2048;stroke-width:0.8263;stroke-miterlimit:10;" d="M101.505,219.887
						c0,0-2.571,22.77-2.571,33.42"/>
					<path style="fill:none;stroke:#1B2048;stroke-width:0.8263;stroke-miterlimit:10;" d="M114.726,204.829
						c0,0,16.894-1.469,30.849,0"/>
					<path style="fill:none;stroke:#1B2048;stroke-width:0.8263;stroke-miterlimit:10;" d="M225.269,352.832
						c0,0,8.08-2.571,11.018-15.057"/>
					<path style="fill:none;stroke:#1B2048;stroke-width:0.8263;stroke-miterlimit:10;" d="M230.778,353.934
						c0,0,4.774-1.469,6.978-8.08"/>
					
						<line style="fill:none;stroke:#1B2048;stroke-width:0.8263;stroke-miterlimit:10;" x1="201.398" y1="368.257" x2="189.278" y2="428.854"/>
				</g>
				<path style="fill:#201360;" d="M148.206,154.502c0,0,1.414,6.362-4.242,10.604l0.353,7.069c0,0,2.121,6.362,0.707,7.069
					c-1.414,0.707-1.767-0.354-1.767-0.354s-4.595-7.423-6.009-7.776c-1.414-0.354,3.181,9.897,3.181,9.897
					s-4.595,7.069-13.078,8.129l1.767-2.474c0,0-3.888,2.474-9.897,2.121c-6.009-0.354-10.604-9.543-10.604-9.543
					s1.06,2.474,0,3.535c-1.06,1.06-7.069-8.13-7.423-19.794l-1.767,3.535c0,0,0.353-8.13,3.535-17.32
					c3.181-9.19,17.32-15.906,25.096-15.906c7.776,0,15.552,0.707,17.673,0c2.121-0.707,1.06,5.302,1.06,5.302
					s1.06-2.474,1.414-4.595c1.414-1.06,3.535,7.423,2.828,10.604c-0.707,3.181-0.707,3.181-0.707,3.181s2.474-3.181,2.828-4.949
					C154.568,142.484,154.215,150.26,148.206,154.502z"/>
				<path style="fill:#FF634D;" d="M143.077,172.112c0,0-1.428-4.732-5.348-2.244c-3.919,2.488,1.648,13.63,4.926,12.669
					C145.934,181.576,143.939,173.911,143.077,172.112z"/>
				<polyline style="fill:none;stroke:#E66657;stroke-width:1.2805;stroke-miterlimit:10;" points="286.527,254.06 296.542,252.057 
					298.545,247.697 				"/>
				<path style="fill:none;stroke:#E66657;stroke-width:1.2805;stroke-miterlimit:10;" d="M296.188,252.292
					c0,0-5.066,4.242-5.773,4.595c-0.707,0.354-3.888,1.178-3.888,1.178"/>
				<path style="fill:none;stroke:#E66657;stroke-width:1.2805;stroke-miterlimit:10;" d="M141.49,184.075
					c0,0-1.414,4.948,7.069,7.776"/>
				<polygon style="fill:#2E60BE;" points="334.715,221.306 259.311,221.306 268.736,172.293 344.141,172.293 				"/>
				<g>
					<path style="fill:#26C6F8;" d="M235.081,189.26c-0.27,1.405,0.806,2.708,2.237,2.708h82.09c1.092,0,2.031-0.775,2.237-1.848
						l1.208-6.282h-86.73L235.081,189.26z"/>
					<path style="fill:#CAE5FF;" d="M329.373,135.594h-82.09c-1.092,0-2.031,0.775-2.237,1.848l-8.923,46.397h86.73l8.757-45.536
						C331.88,136.897,330.804,135.594,329.373,135.594z"/>
				</g>
				<g>
					<path style="fill:#387AB6;" d="M273.249,192.003c1.081-2.981,1.748-5.112,1.748-5.112s2.476-12.942-8.553-9.622
						c0,0-3.826,2.87-5.627,8.947c-0.559,1.887-1.226,3.903-1.881,5.787H273.249z"/>
					<path style="fill:#DCE4FF;" d="M296.092,192.003c-0.203-6.381-0.599-11.498-1.288-12.877c-2.026-3.714-10.297-7.09-10.297-7.09
						l-11.31,1.688c0,0-4.727,1.35-6.246,4.727c-0.51,1.135-1.745,6.655-3.064,13.553H296.092z"/>
					<path style="fill:#FF8D68;" d="M275.128,164.378c0,0-0.684,5.059-2.188,8.751c0,0-0.41,2.871,5.606,1.641
						c6.016-1.231,5.196-4.239,5.196-4.239v-11.895L275.128,164.378z"/>
					<g>
						<g>
							<path style="fill:#FF8D68;" d="M266.682,151.87c0,0,0.068,11.311,3.314,16.76c2.216,2.292,9.771-1.308,12.95-6.171
								c3.179-4.863,3.117-12.179,0.601-16.252c-2.515-4.073-10.801-2.848-13.229-1.441
								C267.89,146.172,266.545,150.061,266.682,151.87z"/>
						</g>
						<path style="fill:#FBA894;" d="M281.946,158.259c0,0,2.133-3.287,3.56-1.33c1.427,1.957-3.515,5.96-3.893,4.437
							C281.236,159.843,281.946,158.259,281.946,158.259z"/>
					</g>
					<path style="fill:#713336;" d="M266.682,151.87c0,0-3.968-3.489,0.818-8.001c2.735-2.051,4.102-0.547,6.973-1.094
						c2.871-0.547,8.067,0,9.981,3.008c1.914,3.008,1.23,9.981,0.684,10.665c-0.547,0.684-2.188,1.094-2.188,2.324
						c0,1.231-0.273,2.188-0.684,2.188c-0.41,0-0.41-2.051-0.41-3.555s-0.273-4.375-0.957-6.426
						c-0.684-2.051-3.828-1.914-5.059-1.641C274.61,149.611,273.795,152.761,266.682,151.87z"/>
					<g>
						<path style="opacity:0.53;fill:#505E83;" d="M281.581,155.268c0,0,0.089-0.045,0.226-0.102
							c-0.001-0.004-0.001-0.011-0.001-0.011L281.581,155.268z"/>
						<path style="fill:#713336;" d="M281.807,155.166c0.025,0.224,0.741,6.773-1.858,8.598c-2.701,1.801-2.813-0.506-4.952-0.844
							c-2.138-0.338-3.883-0.225-4.839,1.182c-0.844,1.407-0.675,2.026-1.463,1.632c-0.169,0.45,1.013,3.207,2.814,3.939
							c1.801,0.731,6.077-1.519,7.99-3.207c1.913-1.688,3.095-2.757,3.432-4.22c0.338-1.463,0.169-4.277,0.563-6.246
							C283.72,154.512,282.359,154.937,281.807,155.166z M271.959,167.253c-2.588-0.563-2.251-2.588,0.394-3.432
							c0,0,2.813-1.294,3.77,0.675C276.517,165.79,274.547,167.816,271.959,167.253z"/>
					</g>
					<path style="fill:#FFFFFF;" d="M283.747,169.673c0,0-3.292,4.136-8.694,4.642c-1.097-0.422-1.688-2.448-1.688-2.448
						l-0.844,1.266c0,0-0.422,2.532,0,3.545c0.506,0.084,2.363-1.182,2.363-1.182s1.266,1.773,2.194,2.11s6.837-3.629,7.427-5.571
						C284.507,172.036,284.465,170.643,283.747,169.673z"/>
					<path style="fill:#387AB6;" d="M296.954,192.003c-0.294-6.29-0.67-11.098-1.024-12.089c-1.35-3.151-6.415-7.202-11.423-7.878
						c0,0-1.881,8.683-3.732,19.967H296.954z"/>
					<path style="fill:#387AB6;" d="M267.821,192.003c2.653-11.258,4.701-17.941,4.701-17.941c-1.519,0.169-4.22,1.35-6.077,3.207
						c-1.008,2.016-2.574,7.806-4.191,14.734H267.821z"/>
					<path style="fill:#387AB6;" d="M295.942,192.003c0.184-6.022-0.153-11.59-1.137-12.877c-3.207-2.701-6.583-2.532-8.271,0.507
						c-0.923,1.661-2.148,7.456-3.069,12.371H295.942z"/>
					<path style="fill:none;stroke:#87B8EB;stroke-width:0.3595;stroke-miterlimit:10;" d="M274.885,175.496
						c-0.957,3.899-1.75,7.842-2.467,11.792"/>
				</g>
				<g>
					
						<ellipse transform="matrix(0.7496 -0.6619 0.6619 0.7496 -6.3659 249.7813)" style="fill:#6787FF;" cx="326.923" cy="133.304" rx="19.219" ry="14.987"/>
					<path style="fill:#6787FF;" d="M347.343,151.536c-0.64,2.565-3.238,4.645-5.803,4.645c-2.565,0-4.126-2.08-3.487-4.645
						c0.64-2.565,3.238-4.645,5.803-4.645S347.982,148.97,347.343,151.536z"/>
					<path style="fill:#FFFFFF;" d="M322.547,141.929c-0.534,0-1.017-0.204-1.323-0.611l-4.386-5.843
						c-0.612-0.815-0.283-2.136,0.736-2.951c1.018-0.815,2.339-0.815,2.951,0l3.279,4.367l11.713-9.375
						c1.018-0.815,2.339-0.815,2.951,0c0.612,0.815,0.283,2.136-0.736,2.951l-13.556,10.851
						C323.665,141.725,323.08,141.929,322.547,141.929z"/>
				</g>
				<g>
					<g>
						<path style="fill:#BFD9FF;" d="M202.215,105.013h-5.551c-1.394,0-2.242-1.13-1.894-2.523l1.384-5.551
							c0.348-1.394,1.759-2.523,3.152-2.523h5.551c1.394,0,2.242,1.13,1.894,2.523l-1.384,5.551
							C205.02,103.884,203.609,105.013,202.215,105.013z"/>
					</g>
					<g>
						<path style="fill:none;stroke:#A9A7E7;stroke-width:0.75;stroke-miterlimit:10;" d="M198.158,121.288h-5.551
							c-1.393,0-2.242-1.13-1.894-2.523l1.384-5.551c0.348-1.393,1.759-2.523,3.152-2.523h5.551c1.393,0,2.242,1.13,1.894,2.523
							l-1.384,5.551C200.963,120.158,199.551,121.288,198.158,121.288z"/>
						<path style="fill:#26C6DA;" d="M215.82,121.288h-5.551c-1.394,0-2.242-1.13-1.894-2.523l1.384-5.551
							c0.348-1.393,1.759-2.523,3.152-2.523h5.551c1.394,0,2.242,1.13,1.894,2.523l-1.384,5.551
							C218.625,120.158,217.214,121.288,215.82,121.288z"/>
						<path style="fill:#FFFFFF;" d="M233.482,121.288h-5.551c-1.394,0-2.242-1.13-1.894-2.523l1.384-5.551
							c0.347-1.393,1.759-2.523,3.152-2.523h5.551c1.393,0,2.242,1.13,1.894,2.523l-1.384,5.551
							C236.287,120.158,234.876,121.288,233.482,121.288z"/>
					</g>
					<g>
						<path style="fill:#26C6DA;" d="M194.006,137.941h-5.551c-1.393,0-2.242-1.13-1.894-2.523l1.384-5.551
							c0.348-1.394,1.759-2.523,3.152-2.523h5.551c1.394,0,2.242,1.13,1.894,2.523l-1.384,5.551
							C196.811,136.811,195.399,137.941,194.006,137.941z"/>
						<path style="fill:#FFFFFF;" d="M189.571,155.729h-5.551c-1.394,0-2.242-1.13-1.894-2.523l1.384-5.551
							c0.347-1.393,1.759-2.523,3.152-2.523h5.551c1.393,0,2.242,1.13,1.894,2.523l-1.384,5.551
							C192.375,154.6,190.964,155.729,189.571,155.729z"/>
						<path style="fill:#EDF4FF;" d="M211.668,137.941h-5.551c-1.394,0-2.242-1.13-1.894-2.523l1.384-5.551
							c0.347-1.394,1.759-2.523,3.152-2.523h5.551c1.393,0,2.242,1.13,1.894,2.523l-1.384,5.551
							C214.473,136.811,213.062,137.941,211.668,137.941z"/>
						<path style="fill:none;stroke:#A9A7E7;stroke-width:0.75;stroke-miterlimit:10;" d="M203.93,168.976h-5.551
							c-1.394,0-2.242-1.13-1.894-2.523l1.384-5.551c0.348-1.393,1.759-2.523,3.152-2.523h5.551c1.394,0,2.242,1.13,1.894,2.523
							l-1.384,5.551C206.735,167.846,205.324,168.976,203.93,168.976z"/>
					</g>
				</g>
				<g>
					<g>
						<path style="fill:#CAE5FF;" d="M370.924,147.412h-2.038c-0.512,0-0.823-0.415-0.695-0.926l0.508-2.038
							c0.128-0.512,0.646-0.926,1.157-0.926h2.038c0.512,0,0.823,0.415,0.695,0.926l-0.508,2.038
							C371.953,146.998,371.435,147.412,370.924,147.412z"/>
					</g>
					<g>
						<path style="fill:#CAE5FF;" d="M369.434,153.387h-2.038c-0.512,0-0.823-0.415-0.695-0.926l0.508-2.038
							c0.128-0.512,0.646-0.926,1.157-0.926h2.038c0.512,0,0.823,0.415,0.695,0.926l-0.508,2.038
							C370.464,152.972,369.946,153.387,369.434,153.387z"/>
						<path style="fill:#CAE5FF;" d="M375.918,153.387h-2.038c-0.512,0-0.823-0.415-0.695-0.926l0.508-2.038
							c0.128-0.512,0.646-0.926,1.157-0.926h2.038c0.512,0,0.823,0.415,0.695,0.926l-0.508,2.038
							C376.948,152.972,376.43,153.387,375.918,153.387z"/>
						<path style="fill:#CAE5FF;" d="M382.402,153.387h-2.038c-0.512,0-0.823-0.415-0.695-0.926l0.508-2.038
							c0.128-0.512,0.646-0.926,1.157-0.926h2.038c0.512,0,0.823,0.415,0.695,0.926l-0.508,2.038
							C383.432,152.972,382.914,153.387,382.402,153.387z"/>
					</g>
					<g>
						<path style="fill:#CAE5FF;" d="M367.91,159.5h-2.038c-0.512,0-0.823-0.415-0.695-0.926l0.508-2.038
							c0.128-0.512,0.646-0.926,1.157-0.926h2.038c0.512,0,0.823,0.415,0.695,0.926l-0.508,2.038
							C368.94,159.085,368.422,159.5,367.91,159.5z"/>
						<path style="fill:#CAE5FF;" d="M366.282,166.03h-2.038c-0.512,0-0.823-0.415-0.695-0.926l0.508-2.038
							c0.128-0.512,0.646-0.926,1.157-0.926h2.038c0.512,0,0.823,0.415,0.695,0.926l-0.508,2.038
							C367.311,165.616,366.793,166.03,366.282,166.03z"/>
						<path style="fill:#CAE5FF;" d="M374.394,159.5h-2.038c-0.512,0-0.823-0.415-0.695-0.926l0.508-2.038
							c0.128-0.512,0.646-0.926,1.157-0.926h2.038c0.512,0,0.823,0.415,0.695,0.926l-0.508,2.038
							C375.424,159.085,374.905,159.5,374.394,159.5z"/>
						<path style="fill:#CAE5FF;" d="M371.553,170.893h-2.038c-0.512,0-0.823-0.415-0.695-0.926l0.508-2.038
							c0.128-0.512,0.646-0.926,1.157-0.926h2.038c0.512,0,0.823,0.415,0.695,0.926l-0.508,2.038
							C372.583,170.479,372.065,170.893,371.553,170.893z"/>
					</g>
				</g>
				<g>
					<path style="opacity:0.9;fill:#BFD9FF;" d="M370.271,224.624h-66.998c-0.704,0-1.219-0.665-1.041-1.347l6.254-24.03
						c0.123-0.474,0.552-0.805,1.041-0.805h66.998c0.704,0,1.219,0.665,1.041,1.347l-6.254,24.03
						C371.189,224.293,370.761,224.624,370.271,224.624z"/>
					<g>
						
							<line style="fill:none;stroke:#A9C2FF;stroke-width:1.076;stroke-linecap:round;stroke-linejoin:round;stroke-miterlimit:10;" x1="312.462" y1="203.582" x2="335.775" y2="203.582"/>
						
							<line style="fill:none;stroke:#A9C2FF;stroke-width:1.076;stroke-linecap:round;stroke-linejoin:round;stroke-miterlimit:10;" x1="310.668" y1="214.342" x2="333.981" y2="214.342"/>
						
							<line style="fill:none;stroke:#A9C2FF;stroke-width:1.076;stroke-linecap:round;stroke-linejoin:round;stroke-miterlimit:10;" x1="320.472" y1="210.277" x2="343.785" y2="210.277"/>
						
							<line style="fill:none;stroke:#A9C2FF;stroke-width:1.076;stroke-linecap:round;stroke-linejoin:round;stroke-miterlimit:10;" x1="311.864" y1="207.169" x2="318.858" y2="207.169"/>
						
							<line style="fill:none;stroke:#A9C2FF;stroke-width:1.076;stroke-linecap:round;stroke-linejoin:round;stroke-miterlimit:10;" x1="310.907" y1="210.277" x2="317.901" y2="210.277"/>
						
							<line style="fill:none;stroke:#A9C2FF;stroke-width:1.076;stroke-linecap:round;stroke-linejoin:round;stroke-miterlimit:10;" x1="339.481" y1="203.582" x2="347.79" y2="203.582"/>
						<path style="fill:none;stroke:#84AEE5;stroke-width:0.3587;stroke-miterlimit:10;" d="M343.552,219.39h-12.408
							c-0.063,0-0.108-0.059-0.092-0.12l0.555-2.133c0.011-0.042,0.049-0.072,0.093-0.072h12.407c0.063,0,0.108,0.059,0.093,0.12
							l-0.555,2.134C343.634,219.361,343.596,219.39,343.552,219.39z"/>
						<path style="fill:none;stroke:#84AEE5;stroke-width:0.3587;stroke-miterlimit:10;" d="M328.13,219.39h-12.408
							c-0.063,0-0.108-0.059-0.092-0.12l0.555-2.133c0.011-0.042,0.049-0.072,0.092-0.072h12.408c0.063,0,0.108,0.059,0.092,0.12
							l-0.555,2.134C328.211,219.361,328.173,219.39,328.13,219.39z"/>
					</g>
					<path style="fill:#387AB6;" d="M365.36,216.297c-0.636-0.847-3.216-1.463-3.929-2.31c-0.364-0.433-0.364-1.237-0.277-1.92
						c0.254-0.162,0.465-0.324,0.59-0.475c0.214-0.313,0.456-0.75,0.698-1.23c0.073,0.072,0.171,0.127,0.297,0.124
						c0.339-0.01,1.628-1.766,1.296-2.172c-0.19-0.233-0.497-0.031-0.725,0.185c0.341-0.782,0.581-1.381,0.581-1.381h-0.013
						c0.032-0.099,0.062-0.198,0.087-0.298c0.512-2.052-0.737-3.716-2.789-3.716c-2.052,0-4.13,1.664-4.642,3.716
						c-0.025,0.101-0.045,0.2-0.061,0.298h-0.013c0,0-0.059,0.599-0.107,1.381c-0.121-0.215-0.327-0.417-0.633-0.185
						c-0.535,0.407-0.121,2.162,0.213,2.172c0.124,0.004,0.25-0.052,0.358-0.124c0.003,0.48,0.026,0.917,0.084,1.23
						c0.062,0.184,0.241,0.386,0.475,0.583c-0.255,0.659-0.644,1.402-1.194,1.812c-1.135,0.847-4.023,1.463-5.081,2.31
						c-0.952,0.762-1.801,2.987-1.962,3.427h17.002C365.671,219.284,365.932,217.059,365.36,216.297z"/>
				</g>
				<g>
					<path style="fill:#FFFFFF;" d="M279.427,216.054h-54.976c-4.826,0-7.763-3.913-6.56-8.739l0,0
						c1.203-4.826,6.091-8.739,10.918-8.739h54.976c4.826,0,7.763,3.913,6.56,8.739l0,0
						C289.142,212.141,284.254,216.054,279.427,216.054z"/>
					<g>
						<g>
							<path style="fill:#FFA402;" d="M230.283,209.597l-2.357,1.096c-0.222,0.103-0.41-0.063-0.318-0.282l0.977-2.321
								c0.037-0.087,0.03-0.175-0.018-0.237l-1.276-1.644c-0.12-0.155,0.035-0.424,0.262-0.456l2.415-0.339
								c0.09-0.013,0.179-0.067,0.238-0.146l1.568-2.111c0.148-0.199,0.431-0.199,0.48,0l0.516,2.111
								c0.019,0.079,0.081,0.134,0.165,0.146l2.246,0.339c0.211,0.032,0.232,0.301,0.034,0.456l-2.096,1.644
								c-0.078,0.061-0.129,0.15-0.136,0.237l-0.18,2.321c-0.017,0.218-0.288,0.385-0.458,0.282l-1.811-1.096
								C230.464,209.556,230.371,209.556,230.283,209.597z"/>
						</g>
						<g>
							<path style="fill:#FFA402;" d="M241.89,209.597l-2.357,1.096c-0.222,0.103-0.41-0.063-0.318-0.282l0.977-2.321
								c0.037-0.087,0.03-0.175-0.018-0.237l-1.276-1.644c-0.12-0.155,0.035-0.424,0.262-0.456l2.415-0.339
								c0.09-0.013,0.179-0.067,0.238-0.146l1.568-2.111c0.148-0.199,0.431-0.199,0.48,0l0.516,2.111
								c0.019,0.079,0.081,0.134,0.165,0.146l2.246,0.339c0.211,0.032,0.232,0.301,0.035,0.456l-2.096,1.644
								c-0.078,0.061-0.129,0.15-0.136,0.237l-0.181,2.321c-0.017,0.218-0.288,0.385-0.458,0.282l-1.811-1.096
								C242.071,209.556,241.978,209.556,241.89,209.597z"/>
						</g>
						<g>
							<path style="fill:#FFA402;" d="M253.497,209.597l-2.357,1.096c-0.222,0.103-0.41-0.063-0.318-0.282l0.977-2.321
								c0.036-0.087,0.03-0.175-0.018-0.237l-1.276-1.644c-0.12-0.155,0.035-0.424,0.262-0.456l2.415-0.339
								c0.09-0.013,0.179-0.067,0.238-0.146l1.568-2.111c0.148-0.199,0.431-0.199,0.479,0l0.516,2.111
								c0.019,0.079,0.081,0.134,0.165,0.146l2.246,0.339c0.211,0.032,0.232,0.301,0.034,0.456l-2.096,1.644
								c-0.078,0.061-0.129,0.15-0.136,0.237l-0.181,2.321c-0.017,0.218-0.288,0.385-0.458,0.282l-1.811-1.096
								C253.678,209.556,253.585,209.556,253.497,209.597z"/>
						</g>
						<g>
							<path style="fill:#FFA402;" d="M265.104,209.597l-2.357,1.096c-0.222,0.103-0.41-0.063-0.318-0.282l0.977-2.321
								c0.037-0.087,0.03-0.175-0.018-0.237l-1.276-1.644c-0.12-0.155,0.035-0.424,0.262-0.456l2.414-0.339
								c0.09-0.013,0.18-0.067,0.238-0.146l1.569-2.111c0.148-0.199,0.431-0.199,0.479,0l0.516,2.111
								c0.019,0.079,0.081,0.134,0.165,0.146l2.246,0.339c0.211,0.032,0.232,0.301,0.035,0.456l-2.096,1.644
								c-0.078,0.061-0.129,0.15-0.136,0.237l-0.181,2.321c-0.017,0.218-0.288,0.385-0.458,0.282l-1.811-1.096
								C265.286,209.556,265.193,209.556,265.104,209.597z"/>
						</g>
						<g>
							<path style="fill:#C2D4D9;" d="M276.711,209.597l-2.357,1.096c-0.222,0.103-0.41-0.063-0.318-0.282l0.977-2.321
								c0.036-0.087,0.03-0.175-0.018-0.237l-1.276-1.644c-0.12-0.155,0.035-0.424,0.262-0.456l2.414-0.339
								c0.09-0.013,0.179-0.067,0.238-0.146l1.568-2.111c0.148-0.199,0.431-0.199,0.48,0l0.516,2.111
								c0.019,0.079,0.081,0.134,0.165,0.146l2.246,0.339c0.211,0.032,0.232,0.301,0.034,0.456l-2.096,1.644
								c-0.078,0.061-0.129,0.15-0.136,0.237l-0.181,2.321c-0.017,0.218-0.288,0.385-0.458,0.282l-1.811-1.096
								C276.893,209.556,276.8,209.556,276.711,209.597z"/>
						</g>
					</g>
				</g>
				<g>
					<ellipse style="fill:#202F7C;" cx="144.244" cy="176" rx="4.545" ry="6.335"/>
					<path style="fill:none;stroke:#202F7C;stroke-width:1.1018;stroke-miterlimit:10;" d="M144.932,176.551
						c0,0,12.67,14.047,12.67,16.251c0,2.203-4.132,1.928-4.132,1.928"/>
					<path style="fill:#202F7C;" d="M154.435,194.73c0,0.913-0.74,1.653-1.653,1.653c-0.913,0-1.653-0.74-1.653-1.653
						c0-0.913,0.74-1.653,1.653-1.653C153.695,193.077,154.435,193.817,154.435,194.73z"/>
				</g>
			</g>
			<g>
				<path style="fill:#4F57A0;" d="M122.404,359.155c4.5,7.763,18.617,13.431,35.346,13.431s30.846-5.668,35.346-13.431H122.404z"/>
				<g>
					<polygon style="fill:#A9A7E7;" points="217.838,319.332 209.355,358.448 204.171,358.448 208.884,320.275 					"/>
					<g>
						<path style="fill:#7A82CC;" d="M233.39,322.631h-75.938v-9.426h68.397c4.165,0,7.54,3.376,7.54,7.54V322.631z"/>
						<g>
							<path style="fill:#A9A7E7;" d="M95.305,354.207l-18.379-88.392c-0.73-3.511,1.951-6.807,5.537-6.807h60.817
								c3.35,0,6.239,2.351,6.921,5.63l18.623,89.568"/>
							<path style="fill:#A9A7E7;" d="M220.202,363.903H104.71c-3.897,0-7.327-2.572-8.418-6.314l-0.986-3.382h124.897V363.903z"/>
						</g>
					</g>
				</g>
				<rect x="154.215" y="368.345" style="fill:#E2E7FF;" width="9.19" height="82.003"/>
				<polygon style="fill:#4F57A0;" points="163.405,383.544 154.215,390.967 154.215,368.345 163.405,368.345 				"/>
				<polygon style="fill:#E2E7FF;" points="163.123,438.127 159.762,438.127 158.922,438.127 155.561,438.127 121.111,451.805 
					197.573,451.805 				"/>
				<g>
					<line style="fill:none;stroke:#4F57A0;stroke-miterlimit:10;" x1="85.027" y1="265.055" x2="139.693" y2="265.055"/>
					<line style="fill:none;stroke:#4F57A0;stroke-miterlimit:10;" x1="145.36" y1="271.388" x2="154.693" y2="318.388"/>
					<line style="fill:none;stroke:#4F57A0;stroke-miterlimit:10;" x1="156.36" y1="326.722" x2="158.36" y2="340.388"/>
				</g>
			</g>
		</g>
		<g>
			<path style="fill:#CAE5FF;" d="M411.203,186.055h-44.019c-2.27,0-4.004-2.028-3.65-4.271l0.333-2.11
				c0.284-1.796,1.832-3.119,3.65-3.119h44.019c2.27,0,4.004,2.029,3.65,4.271l-0.333,2.11
				C414.569,184.732,413.021,186.055,411.203,186.055z"/>
			
				<line style="fill:none;stroke:#FFFFFF;stroke-width:2;stroke-miterlimit:10;" x1="369.027" y1="181.388" x2="407.027" y2="181.388"/>
		</g>
		<g>
			<path style="fill:#FF634D;" d="M250.865,131.388h-12c-5.707,0-11.317,4.626-12.53,10.333v0
				c-1.213,5.707,2.43,10.333,8.137,10.333h2.605c2.911,6.892,9.786,6,9.786,6c-1.3-2.591-1.577-4.665-1.568-6h1.177
				c5.707,0,11.317-4.626,12.53-10.333v0C260.215,136.015,256.572,131.388,250.865,131.388z"/>
			
				<line style="fill:none;stroke:#FFFFFF;stroke-width:2;stroke-miterlimit:10;" x1="233.76" y1="139.722" x2="245.093" y2="139.722"/>
			
				<line style="fill:none;stroke:#FFFFFF;stroke-width:2;stroke-miterlimit:10;" x1="232.804" y1="144.222" x2="251.22" y2="144.222"/>
		</g>
	</g>
</g>
</svg>
